<?xml version="1.0" encoding="UTF-8"?>
<!DOCTYPE svg PUBLIC "-//W3C//DTD SVG 1.1//EN" "http://www.w3.org/Graphics/SVG/1.1/DTD/svg11.dtd">
<svg xmlns="http://www.w3.org/2000/svg" version="1.1" width="1024px" height="1024px" style="shape-rendering:geometricPrecision; text-rendering:geometricPrecision; image-rendering:optimizeQuality; fill-rule:evenodd; clip-rule:evenodd" xmlns:xlink="http://www.w3.org/1999/xlink">
<g><path style="opacity:0.996" fill="#01acc1" d="M 487.5,84.5 C 618.91,80.0005 730.41,124.334 822,217.5C 912.284,316.697 949.951,433.364 935,567.5C 914.905,700.293 848.739,802.793 736.5,875C 635.22,935.49 526.887,952.824 411.5,927C 300.507,898.63 213.674,836.797 151,741.5C 88.9358,640.453 70.2692,531.786 95,415.5C 128.208,284.653 204.708,188.486 324.5,127C 376.201,102.326 430.535,88.159 487.5,84.5 Z"/></g>
<g><path style="opacity:1" fill="#ededed" d="M 492.5,170.5 C 615.917,167.633 714.75,214.966 789,312.5C 851.586,404.019 867.919,503.352 838,610.5C 803.598,716.236 734.764,789.736 631.5,831C 517.948,870.157 411.614,856.157 312.5,789C 214.814,714.778 167.647,615.945 171,492.5C 179.33,384.64 226.497,298.473 312.5,234C 366.599,196.118 426.599,174.951 492.5,170.5 Z"/></g>
<g><path style="opacity:1" fill="#000101" d="M 490.5,234.5 C 504.5,234.5 518.5,234.5 532.5,234.5C 532.333,314.501 532.5,394.501 533,474.5C 548.911,485.322 555.911,500.322 554,519.5C 591.333,556.833 628.667,594.167 666,631.5C 666.667,632.167 666.667,632.833 666,633.5C 654.986,644.681 643.819,655.681 632.5,666.5C 594.68,629.18 557.014,591.68 519.5,554C 489.311,555.395 472.311,541.062 468.5,511C 469.648,495.193 476.815,483.026 490,474.5C 490.5,394.501 490.667,314.501 490.5,234.5 Z"/></g>
<g><path style="opacity:1" fill="#00a9be" d="M 504.5,490.5 C 526.35,489.177 535.183,499.177 531,520.5C 525.167,530.854 516.334,534.688 504.5,532C 492.7,526.566 488.2,517.399 491,504.5C 493.687,497.981 498.187,493.314 504.5,490.5 Z"/></g>
</svg>
